<svg width="146" height="34" viewBox="0 0 146 34" fill="none" xmlns="http://www.w3.org/2000/svg">
<g clip-path="url(#clip0)">
<path d="M108.504 17.9498L106.892 13.2583L105.241 17.9498L104.529 19.7544C104.023 20.9699 103.367 22.5655 102.954 23.6672H100.91L106.179 10.2002H107.566L112.834 23.6672H110.81L109.235 19.7544L108.504 17.9498Z" fill="black"/>
<path d="M45.2225 21.7861C44.0977 20.5704 43.3477 18.8989 43.3477 17.0564C43.3477 15.176 44.0977 13.5046 45.2225 12.2889C46.3662 11.0923 47.9785 10.3135 49.7596 10.3135C52.7593 10.3135 55.1215 12.2129 55.8714 15.214H53.9966C53.3029 13.2196 51.6906 12.2129 49.7596 12.2129C48.5035 12.2129 47.3598 12.7638 46.5349 13.6375C45.71 14.5112 45.185 15.6888 45.185 17.0564C45.185 18.3861 45.71 19.5637 46.5349 20.4375C47.3598 21.3112 48.5035 21.862 49.7596 21.862C51.7469 21.862 53.4342 20.7034 54.1091 18.69H55.9652C55.2152 21.7101 52.8155 23.7615 49.7596 23.7615C47.9785 23.7615 46.3662 23.0017 45.2225 21.7861Z" fill="black"/>
<path d="M74.6967 19.6967C74.6967 22.394 72.1095 23.7995 69.8597 23.7995C67.5537 23.7995 65.0039 22.394 65.0039 19.6778V10.3896H66.9162V19.6967C66.9162 21.1593 68.4723 21.8811 69.8597 21.8811C71.2283 21.8811 72.7844 21.1403 72.7844 19.6778V10.3896H74.6967V19.6967Z" fill="black"/>
<path d="M86.6543 17.836L91.435 23.6672H93.8907L89.7478 18.6717C91.9969 18.2728 93.141 16.4873 93.141 14.6069C93.141 12.4985 91.7159 10.3711 88.8666 10.3711H84.0859V23.6672H85.9601V12.3086H88.8666C90.4599 12.3086 91.2472 13.4672 91.2472 14.6069C91.2472 15.7655 90.4599 16.9242 88.8666 16.9242H86.6543V17.836Z" fill="black"/>
<path d="M124.736 12.3086V23.7242H122.842V12.3086H118.867V10.3711H128.692V12.3086H124.736Z" fill="black"/>
<path d="M139.455 17.9873H145.398V16.0499H139.455V12.308H145.53V10.3896H137.543V23.6666H145.549V21.7482H139.455V17.9873Z" fill="black"/>
<path fill-rule="evenodd" clip-rule="evenodd" d="M17.1765 0C26.6628 -8.04842e-06 34.353 7.61116 34.353 17C34.353 26.3888 26.6628 34 17.1765 34C7.69017 34 0 26.3888 0 17C0 7.61116 7.69017 0 17.1765 0ZM17.2406 30.0318C10.0041 30.0318 4.13775 24.2257 4.13775 17.0635C4.13775 9.90133 10.0041 4.09524 17.2406 4.09524C22.1721 4.09524 26.4672 6.79155 28.7031 10.7759C29.4204 12.0541 28.3599 13.4671 26.8826 13.4671C26.0047 13.4671 25.2296 12.9405 24.7491 12.2133C23.1484 9.79094 20.3833 8.19048 17.2406 8.19048C12.2893 8.19048 8.2755 12.1631 8.2755 17.0635C8.2755 21.9639 12.2893 25.9365 17.2406 25.9365C20.5577 25.9365 23.454 24.1535 25.0046 21.5031C25.465 20.7161 26.2644 20.1349 27.1832 20.1349C28.6045 20.1349 29.652 21.464 29.0303 22.7289C26.9055 27.0522 22.4246 30.0318 17.2406 30.0318Z" fill="black"/>
</g>
<defs>
<clipPath id="clip0">
<rect width="146" height="34" fill="white"/>
</clipPath>
</defs>
</svg>
